<?xml version="1.0" encoding="UTF-8" standalone="no"?>
<svg
   xmlns:dc="http://purl.org/dc/elements/1.1/"
   xmlns:cc="http://creativecommons.org/ns#"
   xmlns:rdf="http://www.w3.org/1999/02/22-rdf-syntax-ns#"
   xmlns:svg="http://www.w3.org/2000/svg"
   xmlns="http://www.w3.org/2000/svg"
   viewBox="0 0 1066.6667 800"
   height="800"
   width="1066.6667"
   xml:space="preserve"
   id="svg2"
   version="1.1"><metadata
     id="metadata8"><rdf:RDF><cc:Work
         rdf:about=""><dc:format>image/svg+xml</dc:format><dc:type
           rdf:resource="http://purl.org/dc/dcmitype/StillImage" /></cc:Work></rdf:RDF></metadata><defs
     id="defs6"><clipPath
       id="clipPath18"
       clipPathUnits="userSpaceOnUse"><path
         id="path16"
         d="M 0,600 H 800 V 0 H 0 Z" /></clipPath></defs><g
     transform="matrix(1.3333333,0,0,-1.3333333,0,800)"
     id="g10"><g
       id="g12"><g
         clip-path="url(#clipPath18)"
         id="g14"><g
           transform="translate(405.1611,272.6396)"
           id="g20"><path
             id="path22"
             style="fill:#0081c6;fill-opacity:1;fill-rule:nonzero;stroke:none"
             d="m 0,0 c -8.904,0 -16.122,7.219 -16.122,16.123 0,8.904 7.218,16.123 16.122,16.123 8.904,0 16.123,-7.219 16.123,-16.123 C 16.123,7.219 8.904,0 0,0 m -47.49,0 c -8.905,0 -16.122,7.219 -16.122,16.123 0,8.904 7.217,16.123 16.122,16.123 8.905,0 16.123,-7.219 16.123,-16.123 C -31.367,7.219 -38.585,0 -47.49,0 M 0,43.002 c -10.292,0 -19.229,-5.786 -23.745,-14.281 -4.516,8.495 -13.453,14.281 -23.745,14.281 -6.049,0 -11.631,-1.999 -16.122,-5.372 v 22.641 h -0.003 c -0.063,2.918 -2.443,5.266 -5.376,5.266 -2.934,0 -5.314,-2.348 -5.375,-5.266 h -0.003 V 15.678 h 0.011 c 0.239,-14.639 12.172,-26.435 26.868,-26.435 10.292,0 19.229,5.787 23.745,14.282 4.516,-8.495 13.453,-14.282 23.745,-14.282 14.846,0 26.88,12.035 26.88,26.88 0,14.845 -12.034,26.879 -26.88,26.879" /></g><g
           transform="translate(468.1992,270.3418)"
           id="g24"><path
             id="path26"
             style="fill:#0081c6;fill-opacity:1;fill-rule:nonzero;stroke:none"
             d="M 0,0 -13.766,18.4 0,36.802 -0.003,36.803 c 1.703,2.371 1.21,5.677 -1.136,7.44 -2.345,1.761 -5.658,1.313 -7.461,-0.983 l -0.002,0.002 -11.88,-15.883 -11.881,15.883 -0.002,-0.003 c -1.803,2.297 -5.115,2.744 -7.461,0.983 -2.346,-1.763 -2.84,-5.069 -1.136,-7.439 L -40.965,36.802 -27.198,18.4 -40.965,0 l 0.003,-0.002 c -1.704,-2.37 -1.21,-5.677 1.136,-7.438 2.346,-1.762 5.658,-1.315 7.461,0.982 l 0.002,-0.002 11.881,15.882 11.88,-15.882 0.002,0.001 c 1.803,-2.296 5.116,-2.743 7.461,-0.982 2.346,1.761 2.839,5.068 1.136,7.439 z" /></g></g></g></g></svg>